<?xml version="1.0" encoding="us-ascii" standalone="no"?><svg xmlns="http://www.w3.org/2000/svg" xmlns:xlink="http://www.w3.org/1999/xlink" contentStyleType="text/css" height="688px" preserveAspectRatio="none" style="width:562px;height:688px;background:#FFFFFF;" version="1.1" viewBox="0 0 562 688" width="562px" zoomAndPan="magnify"><defs/><g><g id="elem_Car"><rect fill="#F1F1F1" height="75.2188" style="stroke:#181818;stroke-width:1.0;" width="74" x="253.3125" y="210"/><text fill="#000000" font-family="sans-serif" font-size="28" lengthAdjust="spacing" textLength="46" x="267.3125" y="243.0664">Car</text><line style="stroke:#181818;stroke-width:1.0;" x1="255.3125" x2="325.3125" y1="253.2188" y2="253.2188"/></g><g id="elem_Tire"><rect fill="#F1F1F1" height="75.2188" style="stroke:#181818;stroke-width:1.0;" width="78" x="105.3125" y="210"/><text fill="#000000" font-family="sans-serif" font-size="28" lengthAdjust="spacing" textLength="50" x="119.3125" y="243.0664">Tire</text><line style="stroke:#181818;stroke-width:1.0;" x1="107.3125" x2="181.3125" y1="253.2188" y2="253.2188"/></g><g id="elem_Driver"><rect fill="#F1F1F1" height="75.2188" style="stroke:#181818;stroke-width:1.0;" width="104" x="398.3125" y="210"/><text fill="#000000" font-family="sans-serif" font-size="28" lengthAdjust="spacing" textLength="76" x="412.3125" y="243.0664">Driver</text><line style="stroke:#181818;stroke-width:1.0;" x1="400.3125" x2="500.3125" y1="253.2188" y2="253.2188"/></g><g id="elem_Track"><rect fill="#F1F1F1" height="75.2188" style="stroke:#181818;stroke-width:1.0;" width="100" x="136.3125" y="406"/><text fill="#000000" font-family="sans-serif" font-size="28" lengthAdjust="spacing" textLength="72" x="150.3125" y="439.0664">Track</text><line style="stroke:#181818;stroke-width:1.0;" x1="138.3125" x2="234.3125" y1="449.2188" y2="449.2188"/></g><g id="elem_TrackSection"><rect fill="#F1F1F1" height="75.2188" style="stroke:#181818;stroke-width:1.0;" width="194" x="89.3125" y="602"/><text fill="#000000" font-family="sans-serif" font-size="28" lengthAdjust="spacing" textLength="166" x="103.3125" y="635.0664">TrackSection</text><line style="stroke:#181818;stroke-width:1.0;" x1="91.3125" x2="281.3125" y1="645.2188" y2="645.2188"/></g><g id="elem_RaceStrategy"><rect fill="#F1F1F1" height="75.2188" style="stroke:#181818;stroke-width:1.0;" width="200" x="350.3125" y="14"/><text fill="#000000" font-family="sans-serif" font-size="28" lengthAdjust="spacing" textLength="172" x="364.3125" y="47.0664">RaceStrategy</text><line style="stroke:#181818;stroke-width:1.0;" x1="352.3125" x2="548.3125" y1="57.2188" y2="57.2188"/></g><g id="elem_Weather"><rect fill="#F1F1F1" height="75.2188" style="stroke:#181818;stroke-width:1.0;" width="136" x="76.3125" y="14"/><text fill="#000000" font-family="sans-serif" font-size="28" lengthAdjust="spacing" textLength="108" x="90.3125" y="47.0664">Weather</text><line style="stroke:#181818;stroke-width:1.0;" x1="78.3125" x2="210.3125" y1="57.2188" y2="57.2188"/></g><g id="elem_ScoreBoard"><rect fill="#F1F1F1" height="75.2188" style="stroke:#181818;stroke-width:1.0;" width="178" x="307.3125" y="406"/><text fill="#000000" font-family="sans-serif" font-size="28" lengthAdjust="spacing" textLength="150" x="321.3125" y="439.0664">ScoreBoard</text><line style="stroke:#181818;stroke-width:1.0;" x1="309.3125" x2="483.3125" y1="449.2188" y2="449.2188"/></g><!--link Tire to Car--><g id="link_Tire_Car"><path codeLine="34" d="M183.6725,248 C206.7125,248 205.7725,248 228.8125,248 " fill="none" id="Tire-to-Car" style="stroke:#181818;stroke-width:2.0;"/><polygon fill="#181818" points="252.8125,248,240.8125,240,228.8125,248,240.8125,256,252.8125,248" style="stroke:#181818;stroke-width:2.0;"/><text fill="#000000" font-family="sans-serif" font-size="26" lengthAdjust="spacing" textLength="14" x="199.0293" y="237.9361">4</text></g><!--link RaceStrategy to Driver--><g id="link_RaceStrategy_Driver"><path codeLine="35" d="M450.3125,90.12 C450.3125,124.22 450.3125,175.12 450.3125,209.4 " fill="none" id="RaceStrategy-Driver" style="stroke:#181818;stroke-width:2.0;"/><text fill="#000000" font-family="sans-serif" font-size="26" lengthAdjust="spacing" textLength="42" x="402.4063" y="132.5402">has</text></g><!--link Car to Driver--><g id="link_Car_Driver"><path codeLine="36" d="M327.8125,248 C351.0925,248 374.3925,248 397.6725,248 " fill="none" id="Car-Driver" style="stroke:#181818;stroke-width:2.0;"/><text fill="#000000" font-family="sans-serif" font-size="26" lengthAdjust="spacing" textLength="66" x="304.7263" y="188.1932">drives</text></g><!--reverse link Track to TrackSection--><g id="link_Track_TrackSection"><path codeLine="37" d="M186.3125,506.12 C186.3125,540.22 186.3125,567.12 186.3125,601.4 " fill="none" id="Track-backto-TrackSection" style="stroke:#181818;stroke-width:2.0;"/><polygon fill="#181818" points="186.3125,482.12,178.3125,494.12,186.3125,506.12,194.3125,494.12,186.3125,482.12" style="stroke:#181818;stroke-width:2.0;"/><text fill="#000000" font-family="sans-serif" font-size="26" lengthAdjust="spacing" textLength="14" x="170.2563" y="580.5695">n</text></g><!--link Weather to Tire--><g id="link_Weather_Tire"><path codeLine="38" d="M144.3125,90.12 C144.3125,124.22 144.3125,175.12 144.3125,209.4 " fill="none" id="Weather-Tire" style="stroke:#181818;stroke-width:2.0;"/><text fill="#000000" font-family="sans-serif" font-size="26" lengthAdjust="spacing" textLength="116" x="12" y="132.5402">influences</text></g><!--link Car to ScoreBoard--><g id="link_Car_ScoreBoard"><path codeLine="39" d="M310.2525,286.12 C329.0725,320.22 357.1925,371.12 376.1125,405.4 " fill="none" id="Car-ScoreBoard" style="stroke:#181818;stroke-width:2.0;"/><text fill="#000000" font-family="sans-serif" font-size="26" lengthAdjust="spacing" textLength="114" x="239.435" y="384.5695">measures</text></g><!--link Car to Track--><g id="link_Car_Track"><path codeLine="40" d="M270.7525,286.12 C252.2725,320.22 224.7125,371.12 206.1325,405.4 " fill="none" id="Car-Track" style="stroke:#181818;stroke-width:2.0;"/><text fill="#000000" font-family="sans-serif" font-size="26" lengthAdjust="spacing" textLength="100" x="123.8138" y="328.5402">races on</text></g><!--SRC=[NL113i8W4Bpp2hB79boCBr1VO4qyhtHhqGe6g8an_js5jahT2p0xEpDBqDYJN0dXJXVIKMxHovTuVzy7usa1xBnvKE98hfBeKLyP_eTglXbdV_ovkqTDTVGOwVnSpXq9OvSz2h3MpjF6eMycF2MjL4zjL1BMa9EAAPqQxWns661XCxUXIMUGPO6SjD8NY76RIh6AXSKYOau7nhRzG5OJkp0n-nSfuKOO1f-xAKwIJPc1nTZRsT5KZUhY0m00]--></g></svg>